<?xml version="1.0" standalone="no"?>
<!DOCTYPE svg PUBLIC "-//W3C//DTD SVG 20010904//EN"
 "http://www.w3.org/TR/2001/REC-SVG-20010904/DTD/svg10.dtd">
<svg version="1.0" xmlns="http://www.w3.org/2000/svg"
 width="320.000000pt" height="320.000000pt" viewBox="0 0 320.000000 320.000000"
 preserveAspectRatio="xMidYMid meet">
<metadata>
Created by potrace 1.11, written by Peter Selinger 2001-2013
</metadata>
<g transform="translate(0.000000,320.000000) scale(0.100000,-0.100000)"
fill="#000000" stroke="none">
<path d="M1459 3196 c-2 -3 -33 -7 -67 -10 -35 -3 -67 -8 -70 -10 -4 -2 -25
-7 -47 -10 -22 -4 -65 -14 -95 -22 -30 -9 -62 -17 -70 -19 -33 -7 -210 -84
-278 -121 -258 -142 -497 -380 -637 -639 -84 -154 -158 -380 -182 -551 -10
-72 -10 -348 0 -424 58 -446 318 -866 687 -1110 41 -28 80 -54 86 -59 24 -19
222 -109 294 -134 195 -66 336 -87 555 -82 176 4 200 7 319 35 295 69 554 210
762 415 267 263 420 572 473 955 10 68 7 364 -3 415 -4 17 -14 66 -22 110
-101 506 -477 952 -968 1150 -91 36 -235 77 -316 90 -25 4 -54 9 -65 12 -25 6
-351 14 -356 9z m418 -225 c230 -48 445 -150 612 -291 28 -24 51 -46 51 -50 0
-3 -60 -46 -132 -95 -121 -81 -445 -320 -476 -351 -7 -7 -34 -30 -60 -51 -26
-21 -52 -42 -58 -48 -6 -5 -45 -39 -85 -75 -117 -103 -395 -375 -474 -464 -33
-36 -171 -195 -189 -216 -11 -14 -42 -50 -67 -80 -82 -98 -262 -342 -344 -467
-44 -67 -83 -122 -87 -122 -14 -2 -133 156 -177 234 -93 162 -152 333 -179
520 -14 95 -7 355 12 445 89 434 352 785 734 982 84 43 209 94 252 103 3 1 40
9 83 19 127 30 174 34 332 31 106 -2 180 -9 252 -24z m853 -545 c112 -148 224
-408 247 -571 3 -22 9 -60 13 -85 16 -87 5 -347 -20 -454 -126 -562 -529 -963
-1091 -1087 -87 -19 -133 -23 -279 -23 -196 0 -275 12 -447 69 -104 35 -294
126 -323 155 -3 3 -24 18 -47 34 -73 49 -74 42 22 186 78 116 148 214 217 305
47 61 233 291 262 324 17 19 54 59 81 90 65 72 351 360 435 436 54 49 112 99
265 228 119 100 594 443 617 446 4 1 26 -23 48 -53z"/>
</g>
</svg>
